<svg height="73" viewBox="0 0 73 73" width="73" xmlns="http://www.w3.org/2000/svg"><g fill="none" fill-rule="nonzero"><rect fill="#fff" height="71" rx="14" stroke="#012e49" stroke-width="2" width="71" x="1" y="1"/><g transform="translate(11 11)"><path d="m3.4085083 38.2546692c1.10387418 1.9046402 2.46221924 3.678154 4.06024935 5.2765731 4.81665805 4.816269 11.22006225 7.4687577 18.03124235 7.4687577 6.8115692 0 13.2149735-2.6524887 18.0312423-7.4687577 1.5984192-1.5984191 2.9563752-3.3719329 4.0602494-5.2765731 2.2229233-3.83535 3.4085083-8.2033768 3.4085083-12.7546692s-1.185585-8.9193192-3.4085083-12.7546692c-1.1038742-1.9046402-2.4622192-3.67854303-4.0602494-5.27657315-4.8162688-4.81626897-11.2196731-7.46875765-18.0312423-7.46875765-6.8111801 0-13.2149735 2.65248868-18.03124235 7.46875765-1.59841919 1.59803012-2.95676424 3.37193295-4.06024935 5.27657315-2.22292325 3.83535-3.4085083 8.2037659-3.4085083 12.7546692s1.18558505 8.9193192 3.4085083 12.7546692zm15.5838089-12.7546692c0-1.1844177.3194504-2.2945175.8746948-3.2524796 1.1268311-1.9439392 3.2287445-3.2555923 5.632988-3.2555923s4.5061569 1.3116531 5.6333771 3.2555923c.5548553.957573.8746948 2.0680619.8746948 3.2524796s-.3198395 2.2945175-.8746948 3.2520905c-1.126831 1.9443283-3.2291336 3.2555923-5.6333771 3.2555923s-4.5061569-1.311264-5.6333771-3.2555923c-.5548553-.957573-.8743057-2.0676728-.8743057-3.2520905z" fill="#ff8398"/><path d="m25.5 41.5036468v9.4963532c6.8115692 0 13.2149735-2.6524887 18.0312423-7.4687577 1.5984192-1.5984191 2.9563752-3.3719329 4.0602494-5.2765731l-8.2298355-4.7516785c-2.767273 4.7828064-7.9384003 8.0006561-13.8616562 8.0006561z" fill="#54e360"/><path d="m41.504036 25.5c0 2.9155197-.7801437 5.6489411-2.1423798 8.0029907l8.2298355 4.7516785c2.2229233-3.83535 3.4085083-8.2033768 3.4085083-12.7546692s-1.185585-8.9193192-3.4085083-12.7546692l-8.2298355 4.7512894c1.3622361 2.3544387 2.1423798 5.0878601 2.1423798 8.0033798z" fill="#008adf"/><path d="m11.6383438 33.5029907-8.2298355 4.7516785c1.10387418 1.9046402 2.46221924 3.678154 4.06024935 5.2765731 4.81665805 4.816269 11.22006225 7.4687577 18.03124235 7.4687577v-9.4963532c-5.9232559 0-11.0943832-3.2178497-13.8616562-8.0006561z" fill="#ffd400"/><path d="m39.3616562 17.4966202 8.2298355-4.7512894c-1.1038742-1.9046402-2.4622192-3.67854303-4.0602494-5.27657315-4.8162688-4.81626897-11.2196731-7.46875765-18.0312423-7.46875765v9.49596403c5.9232559 0 11.0943832 3.21823887 13.8616562 8.00065617z" fill="#0065a3"/><path d="m3.4085083 38.2546692 8.2298355-4.7516785c-1.3622361-2.3540496-2.1419906-5.087471-2.1419906-8.0029907s.7797545-5.6489411 2.1419906-8.0029907l-8.2298355-4.7516785c-2.22292325 3.83535-3.4085083 8.2037659-3.4085083 12.7546692s1.18558505 8.9193192 3.4085083 12.7546692z" fill="#ff9100"/><path d="m25.5 9.49596403v-9.49596403c-6.8111801 0-13.2149735 2.65248868-18.03124235 7.46875765-1.59841919 1.59803012-2.95676424 3.37193295-4.06024935 5.27657315l8.2298355 4.7516785c2.767273-4.7828064 7.9384003-8.00104527 13.8616562-8.00104527z" fill="#ff4949"/><path d="m32.0080719 25.5c0 1.1844177-.3198395 2.2945175-.8746948 3.2520905l8.2282791 4.7509002c1.3622361-2.3540496 2.1423798-5.087471 2.1423798-8.0029907 0-2.9159089-.7801437-5.6489411-2.1423798-8.0033798l-8.2282791 4.7509002c.5548553.957573.8746948 2.0680619.8746948 3.2524796z" fill="#0065a3"/><path d="m31.1333771 22.2475204 8.2282791-4.7505111c-2.767273-4.7828064-7.9384003-8.00104527-13.8616562-8.00104527v9.49596407c2.4042435 0 4.5061569 1.3116531 5.6333771 3.2555923z" fill="#005183"/><path d="m25.5 32.0076828v9.495964c5.9232559 0 11.0943832-3.2178497 13.8616562-8.0006561l-8.2282791-4.7505111c-1.126831 1.9439392-3.2291336 3.2552032-5.6333771 3.2552032z" fill="#00ab5e"/><path d="m25.5 41.5036468v-9.495964c-2.4042435 0-4.5061569-1.311264-5.6333771-3.2555923l-8.2282791 4.7509002c2.767273 4.7828064 7.9384003 8.0006561 13.8616562 8.0006561z" fill="#ff9f04"/><path d="m18.9923172 25.5c0-1.1844177.3194504-2.2945175.8746948-3.2524796l-8.2286682-4.7505111c-1.3622361 2.3540496-2.1419906 5.087471-2.1419906 8.0029907s.7797545 5.6489411 2.1419906 8.0029907l8.2282791-4.7509002c-.5548553-.957573-.8743057-2.0676728-.8743057-3.2520905z" fill="#ff4b00"/><path d="m25.5 18.9919281v-9.49596407c-5.9232559 0-11.0943832 3.21823887-13.8616562 8.00104527l8.2286682 4.7505111c1.1268311-1.9439392 3.2287445-3.2555923 5.632988-3.2555923z" fill="#e80048"/></g></g></svg>